<?xml version="1.0" encoding="UTF-8" standalone="yes"?>
<!DOCTYPE svg PUBLIC "-//W3C//DTD SVG 1.1//EN" "http://www.w3.org/Graphics/SVG/1.1/DTD/svg11.dtd">

<svg width="201" height="200" viewBox="0 0 201 200" xmlns="http://www.w3.org/2000/svg" xmlns:xlink="http://www.w3.org/1999/xlink" version="1.1" baseProfile="full">
    <defs>
        <linearGradient id="105553146638528140273593395200" x1="50.000000%" x2="50.000000%" y1="100.000000%" y2="0.000000%">
            <stop offset="0%" style="stop-color:#ff7c6e;stop-opacity:1.000000"></stop>
            <stop offset="100%" style="stop-color:#ff597c;stop-opacity:1.000000"></stop>
        </linearGradient>
    </defs>
    <g transform="scale(1,-1) translate(0,-200)">
        <path d="M 201.000000 101.000000 C 201.000000 156.228475 156.228475 201.000000 101.000000 201.000000 C 45.771525 201.000000 1.000000 156.228475 1.000000 101.000000 C 1.000000 45.771525 45.771525 1.000000 101.000000 1.000000 C 156.228475 1.000000 201.000000 45.771525 201.000000 101.000000 Z" transform="scale(1.000000,1.000000) translate(-0.000000,-1.000000)" fill="url(#105553146638528140273593395200)" opacity="1.000000"></path>
        <path d="M 22.170342 49.993583 L 49.993583 22.170342 L 32.455497 22.170342 L 88.920309 78.635154 C 93.763318 83.478163 101.615386 83.478163 106.458395 78.635154 C 111.301404 73.792146 111.301404 65.940077 106.458395 61.097068 L 49.993583 4.632257 C 45.150574 -0.210752 37.298506 -0.210752 32.455497 4.632257 L 4.632257 32.455497 C -0.210752 37.298506 -0.210752 45.150574 4.632257 49.993583 C 9.475265 54.836592 17.327334 54.836592 22.170342 49.993583 Z" transform="scale(1.000000,1.000000) translate(45.454452,58.367446)" fill="#ffffff" opacity="1.000000"></path>
    </g>
</svg>