<?xml version="1.0" encoding="UTF-8" standalone="yes"?>
<!DOCTYPE svg PUBLIC "-//W3C//DTD SVG 1.1//EN" "http://www.w3.org/Graphics/SVG/1.1/DTD/svg11.dtd">

<svg width="700" height="500" viewBox="0 0 700 500" xmlns="http://www.w3.org/2000/svg" xmlns:xlink="http://www.w3.org/1999/xlink" version="1.1" baseProfile="full">
    <defs>
        <linearGradient id="105553149407344140236567955088" x1="36.768341%" x2="36.768341%" y1="122.009605%" y2="0.000000%">
            <stop offset="0%" style="stop-color:#ffff00;stop-opacity:1.000000"></stop>
            <stop offset="100%" style="stop-color:#ff007f;stop-opacity:1.000000"></stop>
        </linearGradient>
        <linearGradient id="105553149407344140236568348640" x1="63.231659%" x2="63.231659%" y1="100.000000%" y2="-22.009607%">
            <stop offset="0%" style="stop-color:#ffff00;stop-opacity:1.000000"></stop>
            <stop offset="100%" style="stop-color:#ff007f;stop-opacity:1.000000"></stop>
        </linearGradient>
    </defs>
    <g transform="scale(1,-1) translate(0,-500)">
        <path d="M 3.343146 157.021231 L 157.021231 3.343146 C 160.145425 0.218951 165.210745 0.218951 168.334939 3.343146 L 924.795396 759.803603 C 927.919591 762.927797 927.919591 767.993117 924.795396 771.117311 L 771.117311 924.795396 C 767.993117 927.919591 762.927797 927.919591 759.803603 924.795396 L 3.343146 168.334939 C 0.218951 165.210745 0.218951 160.145425 3.343146 157.021231 Z" transform="scale(1.000000,1.000000) translate(-148.057402,-61.110810)" fill="url(#105553149407344140236567955088)" opacity="1.000000"></path>
        <path d="M 3.343146 157.021228 L 157.021228 3.343146 C 160.145422 0.218951 165.210742 0.218951 168.334937 3.343146 L 924.795398 759.803607 C 927.919592 762.927801 927.919592 767.993121 924.795398 771.117316 L 771.117316 924.795398 C 767.993121 927.919592 762.927801 927.919592 759.803607 924.795398 L 3.343146 168.334937 C 0.218951 165.210742 0.218951 160.145422 3.343146 157.021228 Z" transform="scale(1.000000,1.000000) translate(-393.673660,143.168834)" fill="url(#105553149407344140236568348640)" opacity="1.000000"></path>
    </g>
</svg>