<?xml version="1.0" encoding="UTF-8" standalone="yes"?>
<!DOCTYPE svg PUBLIC "-//W3C//DTD SVG 1.1//EN" "http://www.w3.org/Graphics/SVG/1.1/DTD/svg11.dtd">

<svg width="500" height="760" viewBox="0 0 500 760" xmlns="http://www.w3.org/2000/svg" xmlns:xlink="http://www.w3.org/1999/xlink" version="1.1" baseProfile="full">
    <g transform="scale(1,-1) translate(0,-760)">
        <path d="M 81.093212 768.668645 C 79.790095 765.889574 78.621973 763.174455 77.587196 760.522211 L 73.860769 761.976082 C 74.928298 764.712272 76.131425 767.508755 77.471591 770.366837 L 81.093212 768.668645 Z M 74.166276 750.285485 C 73.356580 747.338881 72.731338 744.479580 72.287520 741.705380 L 68.337746 742.337267 C 68.805050 745.258273 69.461485 748.260223 70.309247 751.345356 L 74.166276 750.285485 Z M 71.472384 731.090505 C 71.511103 728.109887 71.791853 725.240988 72.310090 722.478437 L 68.378668 721.740928 C 67.817592 724.731839 67.514400 727.830059 67.472721 731.038549 L 71.472384 731.090505 Z M 75.449223 712.401208 C 76.613536 709.796880 78.031033 707.296215 79.699281 704.892615 L 76.413213 702.611879 C 74.604793 705.217437 73.064500 707.934732 71.797542 710.768656 L 75.449223 712.401208 Z M 86.580097 696.845392 C 88.600698 694.884708 90.821686 692.995677 93.242449 691.173660 L 90.837007 687.977748 C 88.285894 689.897875 85.937921 691.894911 83.794553 693.974723 L 86.580097 696.845392 Z M 102.269481 685.214394 C 104.727374 683.781441 107.331032 682.393516 110.082307 681.046501 L 108.323415 677.453968 C 105.487321 678.842509 102.798492 680.275836 100.254854 681.758778 L 102.269481 685.214394 Z M 119.996216 676.623237 C 122.658060 675.537371 125.432192 674.477941 128.323969 673.440732 L 126.973509 669.675595 C 124.029082 670.731688 121.201574 671.811502 118.485345 672.919553 L 119.996216 676.623237 Z M 138.641274 669.986196 C 141.399146 669.121906 144.253513 668.269928 147.216327 667.425012 L 146.119367 663.578367 C 143.124175 664.432516 140.236813 665.294343 137.445080 666.169244 L 138.641274 669.986196 Z M 157.792534 664.554391 C 160.584418 663.831048 163.474554 663.106548 166.494508 662.371538 L 165.548584 658.484994 C 162.510105 659.224512 159.600956 659.953778 156.789308 660.682242 L 157.792534 664.554391 Z M 177.186280 659.846217 C 179.923659 659.216567 182.788991 658.568292 185.951449 657.861769 L 185.079312 653.958004 C 181.909153 654.666247 179.035811 655.316335 176.289618 655.948012 L 177.186280 659.846217 Z M 196.706050 655.480544 C 197.594529 655.284787 197.594529 655.284787 198.482244 655.089183 C 200.772823 654.692473 203.147260 654.232914 205.517824 653.727964 L 204.684487 649.815733 C 202.362767 650.310279 200.037460 650.760330 197.708863 651.165672 C 196.733876 651.378474 196.733876 651.378474 195.845347 651.574242 L 196.706050 655.480544 Z M 216.324746 651.104241 C 219.245884 650.307457 222.151390 649.443268 225.035269 648.513663 L 223.808068 644.706567 C 220.981935 645.617558 218.134642 646.464433 215.272142 647.245222 L 216.324746 651.104241 Z M 235.526641 644.805926 C 238.363947 643.713053 241.168421 642.557851 243.933945 641.342867 L 242.325041 637.680706 C 239.616103 638.870829 236.868697 640.002524 234.088890 641.073249 L 235.526641 644.805926 Z M 253.966485 636.584863 C 256.686027 635.196178 259.353632 633.750010 261.963172 632.249487 L 259.969250 628.781884 C 257.417432 630.249215 254.808126 631.663778 252.147394 633.022433 L 253.966485 636.584863 Z M 271.453351 626.381468 C 274.012253 624.681079 276.496658 622.927966 278.900519 621.125859 L 276.501191 617.925355 C 274.158342 619.681723 271.735811 621.391176 269.239552 623.049938 L 271.453351 626.381468 Z M 287.594157 614.085627 C 289.920539 612.047567 292.144799 609.962051 294.261081 607.833415 L 291.424434 605.013232 C 289.373533 607.076105 287.216268 609.098805 284.958325 611.076908 L 287.594157 614.085627 Z M 301.746321 599.576321 C 303.723538 597.172148 305.564459 594.727115 307.263535 592.246137 L 303.963276 589.985984 C 302.331113 592.369257 300.560597 594.720780 298.656904 597.035553 L 301.746321 599.576321 Z M 313.065150 582.579886 C 314.502623 579.803610 315.763881 576.996039 316.843889 574.162594 L 313.106201 572.737922 C 312.080765 575.428197 310.881611 578.097523 309.513046 580.740713 L 313.065150 582.579886 Z M 320.063520 563.289854 C 320.709443 560.244690 321.146190 557.182764 321.369888 554.109606 L 317.380443 553.819212 C 317.170032 556.709837 316.758993 559.591528 316.150578 562.459863 L 320.063520 563.289854 Z M 321.179708 542.756263 C 320.809556 539.546050 320.159485 536.485895 319.234133 533.574547 L 315.422057 534.786189 C 316.268613 537.449629 316.865082 540.257456 317.206036 543.214444 L 321.179708 542.756263 Z M 314.343691 523.135505 C 312.669418 520.522294 310.711973 518.073275 308.479340 515.785239 L 305.616464 518.578792 C 307.662158 520.675251 309.449879 522.911923 310.975670 525.293382 L 314.343691 523.135505 Z M 299.662475 508.502440 C 297.187554 506.838819 294.515096 505.294488 291.649513 503.865596 L 289.864557 507.445251 C 292.579479 508.799018 295.102872 510.257208 297.430992 511.822151 L 299.662475 508.502440 Z M 281.351271 499.512136 C 278.572544 498.519224 275.661089 497.606321 272.619031 496.770860 L 271.559707 500.628039 C 274.507277 501.437551 277.323276 502.320523 280.005314 503.278885 L 281.351271 499.512136 Z M 261.737113 494.217560 C 258.845204 493.643406 255.858950 493.125783 252.779115 492.662828 L 252.184522 496.618389 C 255.203882 497.072253 258.128761 497.579237 260.958164 498.140982 L 261.737113 494.217560 Z M 241.719010 491.273232 C 238.780964 490.971122 235.771569 490.711088 232.690168 490.491610 L 232.405981 494.481502 C 235.446432 494.698063 238.414225 494.954502 241.309860 495.252251 L 241.719010 491.273232 Z M 221.703340 489.890414 C 218.748303 489.774404 215.735727 489.690653 212.662562 489.637850 L 212.593844 493.637260 C 215.638136 493.689567 218.621353 493.772502 221.546429 493.887335 L 221.703340 489.890414 Z M 201.622882 489.577626 C 200.434101 489.584237 199.236788 489.594865 198.030452 489.609441 C 196.222073 489.668069 194.428024 489.710653 192.610372 489.737894 L 192.670314 493.737445 C 194.511396 493.709852 196.328979 493.666710 198.119889 493.608229 C 199.276492 493.594677 200.465114 493.584127 201.645127 493.577564 L 201.622882 489.577626 Z M 181.666910 489.719494 C 178.715960 489.666994 175.729596 489.576527 172.717857 489.447786 L 172.547027 493.444136 C 175.591939 493.574295 178.611532 493.665770 181.595758 493.718861 L 181.666910 489.719494 Z M 161.796219 488.819402 C 158.829877 488.605135 155.855781 488.354909 152.880872 488.068703 L 152.497815 492.050320 C 155.504412 492.339574 158.510135 492.592461 161.508039 492.809008 L 161.796219 488.819402 Z M 142.001687 486.860497 C 139.033490 486.486270 136.076828 486.076510 133.136881 485.631298 L 132.537967 489.586206 C 135.510902 490.036414 138.500415 490.450727 141.501333 490.829079 L 142.001687 486.860497 Z M 122.345999 483.822528 C 119.391571 483.278270 116.464575 482.697697 113.569142 482.080923 L 112.735774 485.993147 C 115.667624 486.617679 118.630847 487.205437 121.621322 487.756335 L 122.345999 483.822528 Z M 102.924353 479.612852 C 100.005459 478.878972 97.129059 478.106915 94.298653 477.296795 L 93.197969 481.142376 C 96.070379 481.964519 98.988554 482.747789 101.949012 483.492119 L 102.924353 479.612852 Z M 83.859908 474.064835 C 80.999089 473.108634 78.197100 472.111012 75.457111 471.072081 L 74.038941 474.812240 C 76.829196 475.870232 79.681232 476.885672 82.591900 477.858535 L 83.859908 474.064835 Z M 65.395282 466.945510 C 62.635641 465.722278 59.954035 464.452925 57.353506 463.137559 L 55.548088 466.706938 C 58.210155 468.053431 60.953256 469.351892 63.774353 470.602365 L 65.395282 466.945510 Z M 47.827449 457.893538 C 45.241705 456.343400 42.757689 454.740795 40.378442 453.085825 L 38.094332 456.369549 C 40.548747 458.076804 43.108596 459.728335 45.770743 461.324276 L 47.827449 457.893538 Z M 31.782942 446.489947 C 29.497782 444.549791 27.342316 442.549638 25.319581 440.489525 L 22.465379 443.291940 C 24.573936 445.439461 26.817975 447.521804 29.194076 449.539172 L 31.782942 446.489947 Z M 18.282246 432.377594 C 16.490313 430.020731 14.854507 427.597121 13.377727 425.106500 L 9.937080 427.146585 C 11.492732 429.770225 13.214274 432.320862 15.098064 434.798541 L 18.282246 432.377594 Z M 8.675075 415.546796 C 7.615406 412.759953 6.787273 409.979407 6.187581 407.206143 L 2.277944 408.051564 C 2.920414 411.022655 3.805876 413.995690 4.936238 416.968451 L 8.675075 415.546796 Z M 5.002008 396.681307 C 4.976291 393.793877 5.197615 390.915601 5.662646 388.047639 L 1.714214 387.407413 C 1.213130 390.497723 0.974424 393.602058 1.002167 396.716932 L 5.002008 396.681307 Z M 8.381586 377.776836 C 9.362694 375.109436 10.554858 372.454030 11.954732 369.812907 L 8.420484 367.939650 C 6.937581 370.737423 5.671691 373.557044 4.627475 376.396020 L 8.381586 377.776836 Z M 17.646122 360.702078 C 19.315193 358.385121 21.144013 356.084022 23.129109 353.801017 L 20.110605 351.176396 C 18.046800 353.549922 16.142153 355.946430 14.400557 358.364064 L 17.646122 360.702078 Z M 30.590196 346.002114 C 32.675550 344.007243 34.879976 342.030695 37.200158 340.074306 L 34.621648 337.016319 C 32.238481 339.025817 29.971855 341.058135 27.825172 343.111675 L 30.590196 346.002114 Z M 45.770594 333.325225 C 48.112442 331.597875 50.544195 329.890285 53.062711 328.203982 L 50.837252 324.880230 C 48.268910 326.599894 45.787514 328.342343 43.396214 330.106170 L 45.770594 333.325225 Z M 62.306406 322.343441 C 64.815904 320.834899 67.394304 319.347206 70.038558 317.881679 L 68.099530 314.383084 C 65.414658 315.871122 62.795657 317.382242 60.245568 318.915183 L 62.306406 322.343441 Z M 79.641751 312.802423 C 82.269785 311.475249 84.950996 310.170018 87.682356 308.887906 L 85.982679 305.266981 C 83.216854 306.565271 80.501156 307.887291 77.838610 309.231893 L 79.641751 312.802423 Z M 97.646062 304.408914 C 100.360607 303.240333 103.115598 302.094879 105.907980 300.973617 L 104.417481 297.261689 C 101.594743 298.395140 98.809376 299.553223 96.064435 300.734889 L 97.646062 304.408914 Z M 116.136911 297.036017 C 118.920366 296.009307 121.733460 295.007138 124.573069 294.030480 L 123.272103 290.247955 C 120.404727 291.234164 117.563862 292.246226 114.752633 293.283181 L 116.136911 297.036017 Z M 134.975031 290.604265 C 137.813198 289.709874 140.671234 288.841672 143.545926 288.000539 L 142.422626 284.161503 C 139.521603 285.010340 136.637253 285.886536 133.772794 286.789212 L 134.975031 290.604265 Z M 154.117906 285.049232 C 157.002414 284.282260 159.897476 283.543457 162.799766 282.833618 L 161.849460 278.948143 C 158.921272 279.664315 156.000357 280.409716 153.090045 281.183550 L 154.117906 285.049232 Z M 173.481407 280.359158 C 176.404981 279.719527 179.329734 279.110449 182.252214 278.532627 L 181.476368 274.608591 C 178.527451 275.191640 175.576340 275.806206 172.626494 276.451585 L 173.481407 280.359158 Z M 193.047244 276.538857 C 194.823612 276.234014 196.596879 275.941243 198.366262 275.660677 C 199.561886 275.467551 200.749072 275.265209 201.934592 275.052543 L 201.228321 271.115389 C 200.065578 271.323969 198.901195 271.522425 197.734107 271.710949 C 195.953689 271.993257 194.163720 272.288786 192.370693 272.596488 L 193.047244 276.538857 Z M 212.816485 272.797943 C 215.773621 272.101706 218.707819 271.341499 221.613134 270.518453 L 220.522878 266.669902 C 217.675242 267.476609 214.798908 268.221824 211.899779 268.904403 L 212.816485 272.797943 Z M 232.228036 267.185726 C 235.113432 266.188405 237.958166 265.128008 240.756804 264.005939 L 239.268253 260.293229 C 236.529976 261.391097 233.745868 262.428895 230.921313 263.405187 L 232.228036 267.185726 Z M 250.955654 259.544871 C 253.720605 258.229473 256.426592 256.851338 259.068694 255.412067 L 257.155207 251.899437 C 254.577655 253.303545 251.936719 254.648551 249.237246 255.932798 L 250.955654 259.544871 Z M 268.666378 249.732085 C 271.253351 248.070411 273.761551 246.345595 276.186515 244.559380 L 273.814236 241.338775 C 271.458439 243.074042 269.020454 244.750573 266.504618 246.366556 L 268.666378 249.732085 Z M 284.909883 237.551540 C 287.226497 235.519768 289.443482 233.424612 291.556824 231.267890 L 288.699811 228.468341 C 286.657584 230.552487 284.513847 232.578421 282.272386 234.544280 L 284.909883 237.551540 Z M 298.982684 222.901963 C 300.910604 220.494679 302.718672 218.024892 304.403355 215.494445 L 301.073769 213.277722 C 299.454494 215.709923 297.715683 218.085109 295.860533 220.401527 L 298.982684 222.901963 Z M 310.100198 205.793600 C 311.501048 203.060749 312.767678 200.269374 313.897202 197.421236 L 310.178931 195.946631 C 309.096841 198.675160 307.883204 201.349750 306.540604 203.968966 L 310.100198 205.793600 Z M 317.426739 186.697641 C 318.205398 183.752450 318.846495 180.756261 319.347931 177.710556 L 315.401064 177.060756 C 314.920267 179.981102 314.305776 182.852947 313.559610 185.675237 L 317.426739 186.697641 Z M 320.543222 166.589486 C 320.700414 163.573944 320.728178 160.516660 320.625113 157.418694 L 316.627325 157.551694 C 316.726620 160.536362 316.699890 163.479807 316.548646 166.381260 L 320.543222 166.589486 Z M 319.708570 146.261698 C 319.322678 143.288735 318.822041 140.282720 318.205736 137.244332 L 314.285569 138.039498 C 314.883153 140.985592 315.368224 143.898140 315.741846 146.776580 L 319.708570 146.261698 Z M 315.558623 126.421953 C 314.739235 123.552040 313.820842 120.656044 312.802814 117.734391 L 309.025550 119.050551 C 310.018663 121.900698 310.914008 124.724020 311.712319 127.520110 L 315.558623 126.421953 Z M 308.800846 107.330718 C 307.647107 104.585642 306.408477 101.819758 305.084508 99.033341 L 301.471610 100.750013 C 302.769610 103.481777 303.983340 106.192058 305.113305 108.880569 L 308.800846 107.330718 Z M 300.062614 89.125333 C 300.001995 89.012731 300.001995 89.012731 299.941248 88.900087 C 298.525723 86.276567 297.053176 83.719067 295.521151 81.221353 L 292.111457 83.312760 C 293.604802 85.747414 295.040478 88.240877 296.420941 90.799412 C 296.480631 90.910096 296.480631 90.910096 296.540220 91.020785 L 300.062614 89.125333 Z M 289.350983 71.928401 C 287.569252 69.445587 285.723031 67.030904 283.813348 64.683671 L 280.710546 67.208077 C 282.569349 69.492772 284.366547 71.843337 286.101191 74.260535 L 289.350983 71.928401 Z M 276.449410 56.294539 C 274.353991 54.080712 272.195497 51.936604 269.975107 49.861400 L 267.243837 52.783756 C 269.404731 54.803354 271.505263 56.889887 273.544360 59.044210 L 276.449410 56.294539 Z M 261.565309 42.565310 C 259.201437 40.662105 256.778742 38.827647 254.298508 37.061007 L 251.977867 40.319016 C 254.394420 42.040297 256.754460 43.827313 259.056810 45.680986 L 261.565309 42.565310 Z M 244.966811 30.896737 C 242.388699 29.319159 239.758076 27.807389 237.076280 26.360400 L 235.176885 29.880669 C 237.795338 31.293481 240.363138 32.769148 242.879021 34.308648 L 244.966811 30.896737 Z M 227.133341 21.397342 C 224.394129 20.135171 221.609850 18.934811 218.781873 17.795151 L 217.286737 21.505214 C 220.054964 22.620795 222.779623 23.795452 225.459385 25.030229 L 227.133341 21.397342 Z M 208.366036 13.936329 C 205.515249 12.968904 202.627607 12.058740 199.704490 11.204641 L 198.582647 15.044103 C 201.451355 15.882304 204.284470 16.775282 207.080621 17.724166 L 208.366036 13.936329 Z M 188.956714 8.352568 C 186.030988 7.651799 183.077156 7.003821 180.096592 6.407325 L 179.311642 10.329550 C 182.243542 10.916308 185.148454 11.553554 188.024989 12.242540 L 188.956714 8.352568 Z M 169.138377 4.462375 C 166.163450 3.999651 163.170078 3.585618 160.159565 3.218773 L 159.675726 7.189403 C 162.642934 7.550970 165.592671 7.958968 168.523603 8.414849 L 169.138377 4.462375 Z M 149.159452 2.092109 C 146.152735 1.841118 143.139316 1.635122 140.120106 1.472274 L 139.904669 5.466468 C 142.885168 5.627229 145.859497 5.830552 148.826702 6.078245 L 149.159452 2.092109 Z M 129.062228 1.066315 C 126.034200 1.006284 123.016499 0.987625 120.007720 1.007842 L 120.034596 5.007751 C 123.008464 4.987769 125.990802 5.006210 128.982943 5.065530 L 129.062228 1.066315 Z M 108.957437 1.254442 C 105.910375 1.369171 102.907810 1.520057 99.921793 1.704122 L 100.167895 5.696544 C 103.122834 5.514395 106.093615 5.365106 109.107941 5.251609 L 108.957437 1.254442 Z M 88.903262 2.529805 C 87.967638 2.611045 87.054282 2.692499 85.953890 2.792264 C 85.777365 2.808268 83.943484 2.975241 83.465030 3.018308 C 81.718877 3.175483 80.723743 3.256425 79.999945 3.296176 L 80.219291 7.290157 C 81.005296 7.246990 82.030805 7.163577 83.823628 7.002201 C 84.304521 6.958915 86.140340 6.791765 86.315059 6.775925 C 87.410807 6.676582 88.319388 6.595553 89.249280 6.514811 L 88.903262 2.529805 Z" transform="scale(1.000000,1.000000) translate(65.051556,2.812519)" opacity="0.237943"></path>
        <path d="M 81.093212 768.668645 C 79.790095 765.889574 78.621973 763.174455 77.587196 760.522211 L 73.860769 761.976082 C 74.928298 764.712272 76.131425 767.508755 77.471591 770.366837 L 81.093212 768.668645 Z M 74.166276 750.285485 C 73.356580 747.338881 72.731338 744.479580 72.287520 741.705380 L 68.337746 742.337267 C 68.805050 745.258273 69.461485 748.260223 70.309247 751.345356 L 74.166276 750.285485 Z M 71.472384 731.090505 C 71.511103 728.109887 71.791853 725.240988 72.310090 722.478437 L 68.378668 721.740928 C 67.817592 724.731839 67.514400 727.830059 67.472721 731.038549 L 71.472384 731.090505 Z M 75.449223 712.401208 C 76.613536 709.796880 78.031033 707.296215 79.699281 704.892615 L 76.413213 702.611879 C 74.604793 705.217437 73.064500 707.934732 71.797542 710.768656 L 75.449223 712.401208 Z M 86.580097 696.845392 C 88.600698 694.884708 90.821686 692.995677 93.242449 691.173660 L 90.837007 687.977748 C 88.285894 689.897875 85.937921 691.894911 83.794553 693.974723 L 86.580097 696.845392 Z M 102.269481 685.214394 C 104.727374 683.781441 107.331032 682.393516 110.082307 681.046501 L 108.323415 677.453968 C 105.487321 678.842509 102.798492 680.275836 100.254854 681.758778 L 102.269481 685.214394 Z M 119.996216 676.623237 C 122.658060 675.537371 125.432192 674.477941 128.323969 673.440732 L 126.973509 669.675595 C 124.029082 670.731688 121.201574 671.811502 118.485345 672.919553 L 119.996216 676.623237 Z M 138.641274 669.986196 C 141.399146 669.121906 144.253513 668.269928 147.216327 667.425012 L 146.119367 663.578367 C 143.124175 664.432516 140.236813 665.294343 137.445080 666.169244 L 138.641274 669.986196 Z M 157.792534 664.554391 C 160.584418 663.831048 163.474554 663.106548 166.494508 662.371538 L 165.548584 658.484994 C 162.510105 659.224512 159.600956 659.953778 156.789308 660.682242 L 157.792534 664.554391 Z M 177.186280 659.846217 C 179.923659 659.216567 182.788991 658.568292 185.951449 657.861769 L 185.079312 653.958004 C 181.909153 654.666247 179.035811 655.316335 176.289618 655.948012 L 177.186280 659.846217 Z M 196.706050 655.480544 C 197.594529 655.284787 197.594529 655.284787 198.482244 655.089183 C 200.772823 654.692473 203.147260 654.232914 205.517824 653.727964 L 204.684487 649.815733 C 202.362767 650.310279 200.037460 650.760330 197.708863 651.165672 C 196.733876 651.378474 196.733876 651.378474 195.845347 651.574242 L 196.706050 655.480544 Z M 216.324746 651.104241 C 219.245884 650.307457 222.151390 649.443268 225.035269 648.513663 L 223.808068 644.706567 C 220.981935 645.617558 218.134642 646.464433 215.272142 647.245222 L 216.324746 651.104241 Z M 235.526641 644.805926 C 238.363947 643.713053 241.168421 642.557851 243.933945 641.342867 L 242.325041 637.680706 C 239.616103 638.870829 236.868697 640.002524 234.088890 641.073249 L 235.526641 644.805926 Z M 253.966485 636.584863 C 256.686027 635.196178 259.353632 633.750010 261.963172 632.249487 L 259.969250 628.781884 C 257.417432 630.249215 254.808126 631.663778 252.147394 633.022433 L 253.966485 636.584863 Z M 271.453351 626.381468 C 274.012253 624.681079 276.496658 622.927966 278.900519 621.125859 L 276.501191 617.925355 C 274.158342 619.681723 271.735811 621.391176 269.239552 623.049938 L 271.453351 626.381468 Z M 287.594157 614.085627 C 289.920539 612.047567 292.144799 609.962051 294.261081 607.833415 L 291.424434 605.013232 C 289.373533 607.076105 287.216268 609.098805 284.958325 611.076908 L 287.594157 614.085627 Z M 301.746321 599.576321 C 303.723538 597.172148 305.564459 594.727115 307.263535 592.246137 L 303.963276 589.985984 C 302.331113 592.369257 300.560597 594.720780 298.656904 597.035553 L 301.746321 599.576321 Z M 313.065150 582.579886 C 314.502623 579.803610 315.763881 576.996039 316.843889 574.162594 L 313.106201 572.737922 C 312.080765 575.428197 310.881611 578.097523 309.513046 580.740713 L 313.065150 582.579886 Z M 320.063520 563.289854 C 320.709443 560.244690 321.146190 557.182764 321.369888 554.109606 L 317.380443 553.819212 C 317.170032 556.709837 316.758993 559.591528 316.150578 562.459863 L 320.063520 563.289854 Z M 321.179708 542.756263 C 320.809556 539.546050 320.159485 536.485895 319.234133 533.574547 L 315.422057 534.786189 C 316.268613 537.449629 316.865082 540.257456 317.206036 543.214444 L 321.179708 542.756263 Z M 314.343691 523.135505 C 312.669418 520.522294 310.711973 518.073275 308.479340 515.785239 L 305.616464 518.578792 C 307.662158 520.675251 309.449879 522.911923 310.975670 525.293382 L 314.343691 523.135505 Z M 299.662475 508.502440 C 297.187554 506.838819 294.515096 505.294488 291.649513 503.865596 L 289.864557 507.445251 C 292.579479 508.799018 295.102872 510.257208 297.430992 511.822151 L 299.662475 508.502440 Z M 281.351271 499.512136 C 278.572544 498.519224 275.661089 497.606321 272.619031 496.770860 L 271.559707 500.628039 C 274.507277 501.437551 277.323276 502.320523 280.005314 503.278885 L 281.351271 499.512136 Z M 261.737113 494.217560 C 258.845204 493.643406 255.858950 493.125783 252.779115 492.662828 L 252.184522 496.618389 C 255.203882 497.072253 258.128761 497.579237 260.958164 498.140982 L 261.737113 494.217560 Z M 241.719010 491.273232 C 238.780964 490.971122 235.771569 490.711088 232.690168 490.491610 L 232.405981 494.481502 C 235.446432 494.698063 238.414225 494.954502 241.309860 495.252251 L 241.719010 491.273232 Z M 221.703340 489.890414 C 218.748303 489.774404 215.735727 489.690653 212.662562 489.637850 L 212.593844 493.637260 C 215.638136 493.689567 218.621353 493.772502 221.546429 493.887335 L 221.703340 489.890414 Z M 201.622882 489.577626 C 200.434101 489.584237 199.236788 489.594865 198.030452 489.609441 C 196.222073 489.668069 194.428024 489.710653 192.610372 489.737894 L 192.670314 493.737445 C 194.511396 493.709852 196.328979 493.666710 198.119889 493.608229 C 199.276492 493.594677 200.465114 493.584127 201.645127 493.577564 L 201.622882 489.577626 Z M 181.666910 489.719494 C 178.715960 489.666994 175.729596 489.576527 172.717857 489.447786 L 172.547027 493.444136 C 175.591939 493.574295 178.611532 493.665770 181.595758 493.718861 L 181.666910 489.719494 Z M 161.796219 488.819402 C 158.829877 488.605135 155.855781 488.354909 152.880872 488.068703 L 152.497815 492.050320 C 155.504412 492.339574 158.510135 492.592461 161.508039 492.809008 L 161.796219 488.819402 Z M 142.001687 486.860497 C 139.033490 486.486270 136.076828 486.076510 133.136881 485.631298 L 132.537967 489.586206 C 135.510902 490.036414 138.500415 490.450727 141.501333 490.829079 L 142.001687 486.860497 Z M 122.345999 483.822528 C 119.391571 483.278270 116.464575 482.697697 113.569142 482.080923 L 112.735774 485.993147 C 115.667624 486.617679 118.630847 487.205437 121.621322 487.756335 L 122.345999 483.822528 Z M 102.924353 479.612852 C 100.005459 478.878972 97.129059 478.106915 94.298653 477.296795 L 93.197969 481.142376 C 96.070379 481.964519 98.988554 482.747789 101.949012 483.492119 L 102.924353 479.612852 Z M 83.859908 474.064835 C 80.999089 473.108634 78.197100 472.111012 75.457111 471.072081 L 74.038941 474.812240 C 76.829196 475.870232 79.681232 476.885672 82.591900 477.858535 L 83.859908 474.064835 Z M 65.395282 466.945510 C 62.635641 465.722278 59.954035 464.452925 57.353506 463.137559 L 55.548088 466.706938 C 58.210155 468.053431 60.953256 469.351892 63.774353 470.602365 L 65.395282 466.945510 Z M 47.827449 457.893538 C 45.241705 456.343400 42.757689 454.740795 40.378442 453.085825 L 38.094332 456.369549 C 40.548747 458.076804 43.108596 459.728335 45.770743 461.324276 L 47.827449 457.893538 Z M 31.782942 446.489947 C 29.497782 444.549791 27.342316 442.549638 25.319581 440.489525 L 22.465379 443.291940 C 24.573936 445.439461 26.817975 447.521804 29.194076 449.539172 L 31.782942 446.489947 Z M 18.282246 432.377594 C 16.490313 430.020731 14.854507 427.597121 13.377727 425.106500 L 9.937080 427.146585 C 11.492732 429.770225 13.214274 432.320862 15.098064 434.798541 L 18.282246 432.377594 Z M 8.675075 415.546796 C 7.615406 412.759953 6.787273 409.979407 6.187581 407.206143 L 2.277944 408.051564 C 2.920414 411.022655 3.805876 413.995690 4.936238 416.968451 L 8.675075 415.546796 Z M 5.002008 396.681307 C 4.976291 393.793877 5.197615 390.915601 5.662646 388.047639 L 1.714214 387.407413 C 1.213130 390.497723 0.974424 393.602058 1.002167 396.716932 L 5.002008 396.681307 Z M 8.381586 377.776836 C 9.362694 375.109436 10.554858 372.454030 11.954732 369.812907 L 8.420484 367.939650 C 6.937581 370.737423 5.671691 373.557044 4.627475 376.396020 L 8.381586 377.776836 Z M 17.646122 360.702078 C 19.315193 358.385121 21.144013 356.084022 23.129109 353.801017 L 20.110605 351.176396 C 18.046800 353.549922 16.142153 355.946430 14.400557 358.364064 L 17.646122 360.702078 Z M 30.590196 346.002114 C 32.675550 344.007243 34.879976 342.030695 37.200158 340.074306 L 34.621648 337.016319 C 32.238481 339.025817 29.971855 341.058135 27.825172 343.111675 L 30.590196 346.002114 Z M 45.770594 333.325225 C 48.112442 331.597875 50.544195 329.890285 53.062711 328.203982 L 50.837252 324.880230 C 48.268910 326.599894 45.787514 328.342343 43.396214 330.106170 L 45.770594 333.325225 Z M 62.306406 322.343441 C 64.815904 320.834899 67.394304 319.347206 70.038558 317.881679 L 68.099530 314.383084 C 65.414658 315.871122 62.795657 317.382242 60.245568 318.915183 L 62.306406 322.343441 Z M 79.641751 312.802423 C 82.269785 311.475249 84.950996 310.170018 87.682356 308.887906 L 85.982679 305.266981 C 83.216854 306.565271 80.501156 307.887291 77.838610 309.231893 L 79.641751 312.802423 Z M 97.646062 304.408914 C 100.360607 303.240333 103.115598 302.094879 105.907980 300.973617 L 104.417481 297.261689 C 101.594743 298.395140 98.809376 299.553223 96.064435 300.734889 L 97.646062 304.408914 Z M 116.136911 297.036017 C 118.920366 296.009307 121.733460 295.007138 124.573069 294.030480 L 123.272103 290.247955 C 120.404727 291.234164 117.563862 292.246226 114.752633 293.283181 L 116.136911 297.036017 Z M 134.975031 290.604265 C 137.813198 289.709874 140.671234 288.841672 143.545926 288.000539 L 142.422626 284.161503 C 139.521603 285.010340 136.637253 285.886536 133.772794 286.789212 L 134.975031 290.604265 Z M 154.117906 285.049232 C 157.002414 284.282260 159.897476 283.543457 162.799766 282.833618 L 161.849460 278.948143 C 158.921272 279.664315 156.000357 280.409716 153.090045 281.183550 L 154.117906 285.049232 Z M 173.481407 280.359158 C 176.404981 279.719527 179.329734 279.110449 182.252214 278.532627 L 181.476368 274.608591 C 178.527451 275.191640 175.576340 275.806206 172.626494 276.451585 L 173.481407 280.359158 Z M 193.047244 276.538857 C 194.823612 276.234014 196.596879 275.941243 198.366262 275.660677 C 199.561886 275.467551 200.749072 275.265209 201.934592 275.052543 L 201.228321 271.115389 C 200.065578 271.323969 198.901195 271.522425 197.734107 271.710949 C 195.953689 271.993257 194.163720 272.288786 192.370693 272.596488 L 193.047244 276.538857 Z M 212.816485 272.797943 C 215.773621 272.101706 218.707819 271.341499 221.613134 270.518453 L 220.522878 266.669902 C 217.675242 267.476609 214.798908 268.221824 211.899779 268.904403 L 212.816485 272.797943 Z M 232.228036 267.185726 C 235.113432 266.188405 237.958166 265.128008 240.756804 264.005939 L 239.268253 260.293229 C 236.529976 261.391097 233.745868 262.428895 230.921313 263.405187 L 232.228036 267.185726 Z M 250.955654 259.544871 C 253.720605 258.229473 256.426592 256.851338 259.068694 255.412067 L 257.155207 251.899437 C 254.577655 253.303545 251.936719 254.648551 249.237246 255.932798 L 250.955654 259.544871 Z M 268.666378 249.732085 C 271.253351 248.070411 273.761551 246.345595 276.186515 244.559380 L 273.814236 241.338775 C 271.458439 243.074042 269.020454 244.750573 266.504618 246.366556 L 268.666378 249.732085 Z M 284.909883 237.551540 C 287.226497 235.519768 289.443482 233.424612 291.556824 231.267890 L 288.699811 228.468341 C 286.657584 230.552487 284.513847 232.578421 282.272386 234.544280 L 284.909883 237.551540 Z M 298.982684 222.901963 C 300.910604 220.494679 302.718672 218.024892 304.403355 215.494445 L 301.073769 213.277722 C 299.454494 215.709923 297.715683 218.085109 295.860533 220.401527 L 298.982684 222.901963 Z M 310.100198 205.793600 C 311.501048 203.060749 312.767678 200.269374 313.897202 197.421236 L 310.178931 195.946631 C 309.096841 198.675160 307.883204 201.349750 306.540604 203.968966 L 310.100198 205.793600 Z M 317.426739 186.697641 C 318.205398 183.752450 318.846495 180.756261 319.347931 177.710556 L 315.401064 177.060756 C 314.920267 179.981102 314.305776 182.852947 313.559610 185.675237 L 317.426739 186.697641 Z M 320.543222 166.589486 C 320.700414 163.573944 320.728178 160.516660 320.625113 157.418694 L 316.627325 157.551694 C 316.726620 160.536362 316.699890 163.479807 316.548646 166.381260 L 320.543222 166.589486 Z M 319.708570 146.261698 C 319.322678 143.288735 318.822041 140.282720 318.205736 137.244332 L 314.285569 138.039498 C 314.883153 140.985592 315.368224 143.898140 315.741846 146.776580 L 319.708570 146.261698 Z M 315.558623 126.421953 C 314.739235 123.552040 313.820842 120.656044 312.802814 117.734391 L 309.025550 119.050551 C 310.018663 121.900698 310.914008 124.724020 311.712319 127.520110 L 315.558623 126.421953 Z M 308.800846 107.330718 C 307.647107 104.585642 306.408477 101.819758 305.084508 99.033341 L 301.471610 100.750013 C 302.769610 103.481777 303.983340 106.192058 305.113305 108.880569 L 308.800846 107.330718 Z M 300.062614 89.125333 C 300.001995 89.012731 300.001995 89.012731 299.941248 88.900087 C 298.525723 86.276567 297.053176 83.719067 295.521151 81.221353 L 292.111457 83.312760 C 293.604802 85.747414 295.040478 88.240877 296.420941 90.799412 C 296.480631 90.910096 296.480631 90.910096 296.540220 91.020785 L 300.062614 89.125333 Z M 289.350983 71.928401 C 287.569252 69.445587 285.723031 67.030904 283.813348 64.683671 L 280.710546 67.208077 C 282.569349 69.492772 284.366547 71.843337 286.101191 74.260535 L 289.350983 71.928401 Z M 276.449410 56.294539 C 274.353991 54.080712 272.195497 51.936604 269.975107 49.861400 L 267.243837 52.783756 C 269.404731 54.803354 271.505263 56.889887 273.544360 59.044210 L 276.449410 56.294539 Z M 261.565309 42.565310 C 259.201437 40.662105 256.778742 38.827647 254.298508 37.061007 L 251.977867 40.319016 C 254.394420 42.040297 256.754460 43.827313 259.056810 45.680986 L 261.565309 42.565310 Z M 244.966811 30.896737 C 242.388699 29.319159 239.758076 27.807389 237.076280 26.360400 L 235.176885 29.880669 C 237.795338 31.293481 240.363138 32.769148 242.879021 34.308648 L 244.966811 30.896737 Z M 227.133341 21.397342 C 224.394129 20.135171 221.609850 18.934811 218.781873 17.795151 L 217.286737 21.505214 C 220.054964 22.620795 222.779623 23.795452 225.459385 25.030229 L 227.133341 21.397342 Z M 208.366036 13.936329 C 205.515249 12.968904 202.627607 12.058740 199.704490 11.204641 L 198.582647 15.044103 C 201.451355 15.882304 204.284470 16.775282 207.080621 17.724166 L 208.366036 13.936329 Z M 188.956714 8.352568 C 186.030988 7.651799 183.077156 7.003821 180.096592 6.407325 L 179.311642 10.329550 C 182.243542 10.916308 185.148454 11.553554 188.024989 12.242540 L 188.956714 8.352568 Z M 169.138377 4.462375 C 166.163450 3.999651 163.170078 3.585618 160.159565 3.218773 L 159.675726 7.189403 C 162.642934 7.550970 165.592671 7.958968 168.523603 8.414849 L 169.138377 4.462375 Z M 149.159452 2.092109 C 146.152735 1.841118 143.139316 1.635122 140.120106 1.472274 L 139.904669 5.466468 C 142.885168 5.627229 145.859497 5.830552 148.826702 6.078245 L 149.159452 2.092109 Z M 129.062228 1.066315 C 126.034200 1.006284 123.016499 0.987625 120.007720 1.007842 L 120.034596 5.007751 C 123.008464 4.987769 125.990802 5.006210 128.982943 5.065530 L 129.062228 1.066315 Z M 108.957437 1.254442 C 105.910375 1.369171 102.907810 1.520057 99.921793 1.704122 L 100.167895 5.696544 C 103.122834 5.514395 106.093615 5.365106 109.107941 5.251609 L 108.957437 1.254442 Z M 88.903262 2.529805 C 87.967638 2.611045 87.054282 2.692499 85.953890 2.792264 C 85.777365 2.808268 83.943484 2.975241 83.465030 3.018308 C 81.718877 3.175483 80.723743 3.256425 79.999945 3.296176 L 80.219291 7.290157 C 81.005296 7.246990 82.030805 7.163577 83.823628 7.002201 C 84.304521 6.958915 86.140340 6.791765 86.315059 6.775925 C 87.410807 6.676582 88.319388 6.595553 89.249280 6.514811 L 88.903262 2.529805 Z" transform="scale(1.000000,1.000000) translate(63.887790,3.738907)" fill="#ce44ff" opacity="1.000000"></path>
    </g>
</svg>