<?xml version="1.0" encoding="UTF-8" standalone="yes"?>
<!DOCTYPE svg PUBLIC "-//W3C//DTD SVG 1.1//EN" "http://www.w3.org/Graphics/SVG/1.1/DTD/svg11.dtd">

<svg width="500" height="760" viewBox="0 0 500 760" xmlns="http://www.w3.org/2000/svg" xmlns:xlink="http://www.w3.org/1999/xlink" version="1.1" baseProfile="full">
    <g transform="scale(1,-1) translate(0,-760)">
        <path d="M 77.884263 760.106906 C 76.581146 757.327836 75.413024 754.612717 74.378246 751.960472 L 70.651819 753.414344 C 71.719348 756.150533 72.922475 758.947017 74.262641 761.805099 L 77.884263 760.106906 Z M 70.957326 741.723746 C 70.147631 738.777142 69.522389 735.917842 69.078570 733.143641 L 65.128796 733.775528 C 65.596100 736.696535 66.252535 739.698484 67.100297 742.783617 L 70.957326 741.723746 Z M 68.263434 722.528767 C 68.302153 719.548148 68.582904 716.679250 69.101140 713.916699 L 65.169718 713.179189 C 64.608643 716.170101 64.305451 719.268321 64.263772 722.476811 L 68.263434 722.528767 Z M 72.240273 703.839469 C 73.404587 701.235142 74.822083 698.734477 76.490332 696.330876 L 73.204264 694.050140 C 71.395844 696.655699 69.855551 699.372994 68.588592 702.206918 L 72.240273 703.839469 Z M 83.371148 688.283653 C 85.391749 686.322969 87.612736 684.433938 90.033500 682.611921 L 87.628058 679.416010 C 85.076944 681.336136 82.728972 683.333173 80.585603 685.412984 L 83.371148 688.283653 Z M 99.060531 676.652656 C 101.518424 675.219702 104.122083 673.831778 106.873358 672.484763 L 105.114465 668.892229 C 102.278372 670.280771 99.589542 671.714097 97.045905 673.197040 L 99.060531 676.652656 Z M 116.787267 668.061498 C 119.449110 666.975633 122.223242 665.916202 125.115019 664.878994 L 123.764559 661.113857 C 120.820132 662.169949 117.992624 663.249764 115.276396 664.357815 L 116.787267 668.061498 Z M 135.432325 661.424457 C 138.190197 660.560168 141.044563 659.708189 144.007377 658.863274 L 142.910417 655.016629 C 139.915226 655.870777 137.027864 656.732604 134.236130 657.607506 L 135.432325 661.424457 Z M 154.583584 655.992652 C 157.375468 655.269310 160.265605 654.544809 163.285559 653.809799 L 162.339634 649.923255 C 159.301155 650.662773 156.392007 651.392040 153.580359 652.120503 L 154.583584 655.992652 Z M 173.977330 651.284478 C 176.714710 650.654828 179.580041 650.006553 182.742500 649.300030 L 181.870362 645.396266 C 178.700204 646.104509 175.826861 646.754597 173.080668 647.386274 L 173.977330 651.284478 Z M 193.497100 646.918805 C 194.385579 646.723048 194.385579 646.723048 195.273295 646.527445 C 197.563873 646.130735 199.938310 645.671175 202.308874 645.166226 L 201.475537 641.253995 C 199.153818 641.748540 196.828510 642.198591 194.499913 642.603933 C 193.524926 642.816736 193.524926 642.816736 192.636398 643.012504 L 193.497100 646.918805 Z M 213.115796 642.542502 C 216.036934 641.745719 218.942441 640.881529 221.826319 639.951924 L 220.599119 636.144828 C 217.772986 637.055820 214.925692 637.902694 212.063192 638.683484 L 213.115796 642.542502 Z M 232.317692 636.244187 C 235.154998 635.151315 237.959471 633.996112 240.724996 632.781129 L 239.116091 629.118968 C 236.407154 630.309091 233.659748 631.440786 230.879941 632.511511 L 232.317692 636.244187 Z M 250.757535 628.023124 C 253.477078 626.634439 256.144682 625.188272 258.754222 623.687749 L 256.760300 620.220145 C 254.208483 621.687477 251.599176 623.102040 248.938445 624.460694 L 250.757535 628.023124 Z M 268.244401 617.819730 C 270.803304 616.119341 273.287709 614.366228 275.691570 612.564120 L 273.292241 609.363617 C 270.949393 611.119985 268.526861 612.829437 266.030602 614.488199 L 268.244401 617.819730 Z M 284.385208 605.523889 C 286.711589 603.485828 288.935849 601.400313 291.052131 599.271677 L 288.215485 596.451493 C 286.164583 598.514366 284.007318 600.537066 281.749376 602.515170 L 284.385208 605.523889 Z M 298.537371 591.014583 C 300.514588 588.610409 302.355509 586.165377 304.054585 583.684399 L 300.754326 581.424246 C 299.122163 583.807519 297.351647 586.159042 295.447954 588.473815 L 298.537371 591.014583 Z M 309.856200 574.018147 C 311.293673 571.241871 312.554932 568.434300 313.634939 565.600856 L 309.897252 564.176183 C 308.871815 566.866459 307.672661 569.535785 306.304097 572.178974 L 309.856200 574.018147 Z M 316.854570 554.728115 C 317.500493 551.682952 317.937241 548.621025 318.160938 545.547868 L 314.171493 545.257473 C 313.961082 548.148098 313.550043 551.029789 312.941628 553.898125 L 316.854570 554.728115 Z M 317.978381 534.201393 C 317.625348 531.047076 317.012468 527.992144 316.144750 525.038845 L 312.306972 526.166434 C 313.108893 528.895794 313.675943 531.722282 314.003201 534.646297 L 317.978381 534.201393 Z M 311.710983 514.455186 C 310.215319 511.761839 308.474507 509.179474 306.496414 506.709846 L 303.374414 509.210468 C 305.213690 511.506785 306.828759 513.902621 308.214001 516.397123 L 311.710983 514.455186 Z M 298.624513 498.536813 C 296.363357 496.559779 293.922182 494.678608 291.308375 492.894209 L 289.053080 496.197790 C 291.537621 497.893941 293.852657 499.677909 295.991610 501.548095 L 298.624513 498.536813 Z M 281.675402 487.154217 C 279.032578 485.778208 276.266110 484.480518 273.382881 483.261954 L 271.825691 486.946402 C 274.612046 488.124023 277.281798 489.376346 279.828151 490.702127 L 281.675402 487.154217 Z M 262.916960 479.351629 C 260.086222 478.420613 257.171768 477.556195 254.180554 476.759045 L 253.150515 480.624147 C 256.068852 481.401876 258.910084 482.244577 261.667238 483.151391 L 262.916960 479.351629 Z M 243.298856 474.222722 C 240.367724 473.631830 237.382705 473.100578 234.351244 472.629404 L 233.736909 476.581947 C 236.709990 477.044047 239.636302 477.564850 242.508391 478.143840 L 243.298856 474.222722 Z M 223.361880 471.205258 C 220.373411 470.892529 217.356214 470.635694 214.318557 470.434858 L 214.054671 474.426144 C 217.041737 474.623635 220.008123 474.876145 222.945572 475.183535 L 223.361880 471.205258 Z M 203.246549 469.952699 C 200.439225 469.892955 197.628336 469.880184 194.821393 469.914100 C 194.467372 469.925274 194.467372 469.925274 194.153830 469.935685 L 194.286994 473.933467 C 194.599265 473.923099 194.599265 473.923099 194.910833 473.912889 C 197.632258 473.880429 200.398663 473.892997 203.161442 473.951793 L 203.246549 469.952699 Z M 183.152735 470.334626 C 179.539074 470.467795 176.845125 470.560884 174.166413 470.642101 L 174.287635 474.640264 C 176.976628 474.558735 179.678432 474.465375 183.300041 474.331912 L 183.152735 470.334626 Z M 163.206248 470.887759 C 160.110664 470.927646 157.140760 470.936806 154.246616 470.912764 L 154.213388 474.912626 C 157.136922 474.936912 160.134922 474.927665 163.257784 474.887427 L 163.206248 470.887759 Z M 143.314349 470.644568 C 140.276459 470.516279 137.309474 470.342442 134.399349 470.119750 L 134.094148 474.108090 C 137.050764 474.334339 140.063143 474.510836 143.145581 474.641006 L 143.314349 470.644568 Z M 123.551138 469.025757 C 120.557597 468.646182 117.623174 468.205647 114.742226 467.700817 L 114.051823 471.640785 C 116.996014 472.156697 119.992808 472.606595 123.047975 472.993984 L 123.551138 469.025757 Z M 104.088167 465.476960 C 101.177108 464.765794 98.323926 463.978760 95.526149 463.112613 L 94.343205 466.933692 C 97.219198 467.824053 100.150272 468.632573 103.138890 469.362687 L 104.088167 465.476960 Z M 85.323826 459.500602 C 82.566221 458.394045 79.867912 457.199064 77.227913 455.912584 L 75.475675 459.508367 C 78.202538 460.837177 80.988434 462.070948 83.834185 463.212875 L 85.323826 459.500602 Z M 67.715751 450.723718 C 65.196964 449.193317 62.738017 447.566651 60.338698 445.840923 L 58.003068 449.088205 C 60.486690 450.874567 63.031910 452.558306 65.638712 454.142183 L 67.715751 450.723718 Z M 51.872623 439.120338 C 49.668387 437.194293 47.521895 435.170944 45.433341 433.047938 L 42.581871 435.853133 C 44.740957 438.047834 46.960671 440.140204 49.240666 442.132446 L 51.872623 439.120338 Z M 38.186738 424.996403 C 36.331872 422.746310 34.530306 420.404018 32.782404 417.967700 L 29.532319 420.299426 C 31.332187 422.808177 33.188301 425.221389 35.100261 427.540742 L 38.186738 424.996403 Z M 26.809892 408.931207 C 25.294228 406.442078 23.826309 403.869333 22.406522 401.211624 L 18.878402 403.096398 C 20.333379 405.819978 21.838507 408.457938 23.393428 411.011537 L 26.809892 408.931207 Z M 17.574947 391.430240 C 16.363231 388.775131 15.193641 386.045916 14.066519 383.241617 L 10.355083 384.733341 C 11.504926 387.594173 12.698662 390.379732 13.935989 393.090957 L 17.574947 391.430240 Z M 10.263981 373.026678 C 9.595347 371.084319 8.944972 369.109802 8.312953 367.102878 C 8.067022 366.276693 7.827706 365.426676 7.602796 364.578186 L 3.736324 365.603074 C 3.971678 366.490963 4.222010 367.380108 4.488593 368.274762 C 5.140234 370.344793 5.801640 372.352798 6.481802 374.328647 L 10.263981 373.026678 Z M 5.544897 354.040122 C 5.179933 351.096123 4.999044 348.186151 5.000004 345.310296 L 1.000004 345.308961 C 0.998989 348.350547 1.190121 351.425294 1.575284 354.532230 L 5.544897 354.040122 Z M 5.857751 334.649345 C 6.324918 331.776946 6.981923 328.941074 7.826388 326.141939 L 3.996867 324.986619 C 3.101843 327.953338 2.405128 330.960615 1.909627 334.007222 L 5.857751 334.649345 Z M 11.703400 316.159132 C 12.944118 313.560873 14.354251 310.997588 15.931378 308.469980 L 12.537801 306.352522 C 10.882227 309.005852 9.399850 311.700459 8.093822 314.435490 L 11.703400 316.159132 Z M 22.153573 299.740292 C 23.958386 297.496361 25.900738 295.284611 27.978180 293.105886 L 25.083265 290.345548 C 22.929330 292.604495 20.912872 294.900630 19.036659 297.233332 L 22.153573 299.740292 Z M 35.823664 285.593183 C 37.999720 283.681265 40.284065 281.798756 42.674349 279.946411 L 40.224165 276.784671 C 37.769796 278.686679 35.422095 280.621399 33.183496 282.588268 L 35.823664 285.593183 Z M 51.511629 273.558956 C 53.926128 271.927650 56.425852 270.323394 59.008566 268.746838 L 56.924470 265.332670 C 54.289859 266.940905 51.738390 268.578370 49.272305 270.244529 L 51.511629 273.558956 Z M 68.488382 263.285918 C 71.061756 261.885551 73.702789 260.510473 76.409314 259.161259 L 74.624744 255.581411 C 71.875797 256.951773 69.192309 258.348956 66.576439 259.772448 L 68.488382 263.285918 Z M 86.233505 254.506185 C 88.914723 253.298176 91.649892 252.114216 94.436855 250.954828 L 92.900480 247.261652 C 90.078021 248.435806 87.307277 249.635165 84.590394 250.859243 L 86.233505 254.506185 Z M 104.603616 246.920775 C 107.365395 245.875667 110.170087 244.853891 113.015484 243.855936 L 111.691641 240.081358 C 108.815710 241.090022 105.980401 242.122951 103.187916 243.179679 L 104.603616 246.920775 Z M 123.378016 240.383994 C 126.199027 239.481527 129.053522 238.602059 131.939193 237.746047 L 130.801620 233.911216 C 127.888948 234.775237 125.007383 235.663047 122.159228 236.574197 L 123.378016 240.383994 Z M 142.489835 234.758032 C 145.356559 233.983652 148.248304 233.232295 151.162618 232.504395 L 150.193327 228.623613 C 147.254455 229.357646 144.338100 230.115397 141.446713 230.896439 L 142.489835 234.758032 Z M 161.839111 229.965304 C 164.743146 229.308693 167.664214 228.675492 170.599668 228.066105 L 169.786620 224.149607 C 166.828166 224.763769 163.884066 225.401963 160.956967 226.063789 L 161.839111 229.965304 Z M 181.355326 225.951653 C 184.290269 225.406585 187.234262 224.885669 190.184414 224.389276 L 189.520702 220.444724 C 186.548338 220.944855 183.582123 221.469703 180.624948 222.018900 L 181.355326 225.951653 Z M 201.066761 222.572559 C 204.063708 222.037724 207.026959 221.469290 209.952683 220.867419 L 209.146692 216.949463 C 206.255588 217.544212 203.326750 218.106045 200.364023 218.634773 L 201.066761 222.572559 Z M 220.768087 218.447320 C 223.744988 217.725183 226.672506 216.966732 229.547176 216.172134 L 228.481484 212.316710 C 225.647981 213.099928 222.761360 213.847783 219.825114 214.560059 L 220.768087 218.447320 Z M 240.168227 212.992334 C 243.096564 212.044439 245.957123 211.056070 248.746612 210.027374 L 247.362618 206.274434 C 244.624127 207.284323 241.814267 208.255175 238.936367 209.186744 L 240.168227 212.992334 Z M 259.082016 205.887894 C 261.925401 204.651635 264.676857 203.368324 267.333031 202.038051 L 265.541822 198.461520 C 262.951222 199.758953 260.265190 201.011749 257.487107 202.219616 L 259.082016 205.887894 Z M 277.112509 196.665793 C 279.791338 195.049562 282.344674 193.376308 284.768809 191.646012 L 282.444949 188.390298 C 280.105878 190.059877 277.638410 191.676860 275.046134 193.240870 L 277.112509 196.665793 Z M 293.541974 184.624356 C 295.882160 182.513577 298.051179 180.332289 300.044568 178.080423 L 297.049475 175.429117 C 295.157044 177.566936 293.093607 179.642044 290.862882 181.654092 L 293.541974 184.624356 Z M 306.855892 169.038924 C 308.530186 166.382277 309.986052 163.644396 311.218475 160.825791 L 307.553503 159.223298 C 306.402116 161.856571 305.040388 164.417419 303.471874 166.906220 L 306.855892 169.038924 Z M 314.762552 149.968129 C 315.427812 146.971864 315.865440 143.900753 316.071934 140.755666 L 312.080527 140.493607 C 311.887357 143.435768 311.478549 146.304635 310.857644 149.101122 L 314.762552 149.968129 Z M 315.847176 129.466537 C 315.544520 126.485832 315.052020 123.447926 314.367767 120.352985 L 310.462083 121.216482 C 311.113198 124.161541 311.580848 127.046159 311.867638 129.870613 L 315.847176 129.466537 Z M 311.270495 109.527034 C 310.295082 106.730141 309.173966 103.890938 307.905963 101.009328 L 304.244747 102.620383 C 305.470872 105.406823 306.553320 108.148100 307.493590 110.844224 L 311.270495 109.527034 Z M 302.985176 90.970656 C 301.584419 88.371216 300.070869 85.739631 298.443749 83.075803 L 295.030180 85.160879 C 296.620150 87.763888 298.097761 90.332988 299.463891 92.868168 L 302.985176 90.970656 Z M 292.901518 73.592266 C 291.324677 70.953037 289.696705 68.388657 288.018163 65.898538 L 284.701355 68.134335 C 286.339086 70.563910 287.928056 73.066854 289.467709 75.643839 L 292.901518 73.592266 Z M 281.476141 56.892874 C 279.582344 54.473535 277.634093 52.135867 275.632099 49.879140 L 272.639839 52.533643 C 274.587304 54.728902 276.483037 57.003554 278.326375 59.358431 L 281.476141 56.892874 Z M 267.911503 41.830522 C 265.707312 39.707129 263.447502 37.669854 261.132942 35.717810 L 258.554127 38.775540 C 260.801341 40.670786 262.995673 42.649032 265.136368 44.711256 L 267.911503 41.830522 Z M 252.295798 28.864800 C 249.812200 27.097448 247.274412 25.417461 244.683420 23.823795 L 242.587784 27.230892 C 245.102853 28.777860 247.566080 30.408487 249.976624 32.123854 L 252.295798 28.864800 Z M 234.908413 18.346034 C 232.205055 16.971198 229.451651 15.681109 226.649239 14.474599 L 225.067498 18.148574 C 227.792019 19.321551 230.468212 20.575462 233.095168 21.911443 L 234.908413 18.346034 Z M 216.277234 10.465006 C 213.422033 9.480989 210.522721 8.576194 207.580327 7.749384 L 206.498239 11.600239 C 209.366763 12.406292 212.192302 13.288064 214.973904 14.246716 L 216.277234 10.465006 Z M 196.735200 5.093404 C 193.786965 4.473558 190.801362 3.925902 187.779382 3.449171 L 187.156072 7.400308 C 190.111751 7.866580 193.030790 8.402026 195.912220 9.007826 L 196.735200 5.093404 Z M 176.731310 2.035945 C 173.740326 1.739523 170.718955 1.507690 167.668131 1.339179 L 167.447529 5.333091 C 170.440822 5.498424 173.404234 5.725810 176.336822 6.016445 L 176.731310 2.035945 Z M 156.558483 1.004031 C 153.557947 0.986498 150.533874 1.026226 147.487130 1.121942 L 147.612731 5.119969 C 150.610298 5.025799 153.584723 4.986723 156.535111 5.003963 L 156.558483 1.004031 Z M 136.432066 1.705611 C 133.439242 1.925987 130.429580 2.196980 127.403849 2.517284 L 127.824937 6.495058 C 130.808691 6.179198 133.775918 5.912026 136.725811 5.694811 L 136.432066 1.705611 Z M 116.425991 3.883755 C 113.453640 4.307874 110.471387 4.776433 107.479810 5.288075 L 108.154129 9.230827 C 111.109719 8.725340 114.055556 8.262502 116.991020 7.843647 L 116.425991 3.883755 Z M 96.610688 7.326205 C 93.664516 7.926348 90.716207 8.565000 87.765829 9.240759 L 88.658870 13.139794 C 91.578126 12.471164 94.494908 11.839341 97.409103 11.245712 L 96.610688 7.326205 Z M 77.008229 11.864538 C 74.091187 12.618676 71.181737 13.405012 68.278132 14.222338 L 69.361958 18.072704 C 72.238444 17.263012 75.120370 16.484115 78.009426 15.737212 L 77.008229 11.864538 Z M 57.688726 17.345735 C 54.801102 18.235748 51.934937 19.149912 49.077958 20.089708 L 50.327860 23.889411 C 53.161443 22.957311 56.003735 22.050761 58.866898 21.168288 L 57.688726 17.345735 Z M 38.571978 24.480054 C 35.686574 26.089297 33.121699 27.935807 30.877287 29.997068 L 33.582954 32.943144 C 35.595321 31.094992 37.905744 29.431668 40.520320 27.973471 L 38.571978 24.480054 Z M 23.719803 39.158361 C 22.183316 42.015878 21.087709 45.039291 20.427153 48.137192 L 24.339209 48.971348 C 24.921977 46.238264 25.888148 43.572037 27.242806 41.052681 L 23.719803 39.158361 Z M 20.030965 59.811260 C 20.618299 63.651118 21.923255 66.965458 23.710434 69.107319 L 26.781700 66.544640 C 25.511128 65.021911 24.470054 62.377783 23.984978 59.206465 L 20.030965 59.811260 Z" transform="scale(1.000000,1.000000) translate(67.096739,12.300645)" fill="#ce44ff" opacity="1.000000"></path>
    </g>
</svg>