<?xml version="1.0" encoding="UTF-8" standalone="yes"?>
<!DOCTYPE svg PUBLIC "-//W3C//DTD SVG 1.1//EN" "http://www.w3.org/Graphics/SVG/1.1/DTD/svg11.dtd">

<svg width="500" height="500" viewBox="0 0 500 500" xmlns="http://www.w3.org/2000/svg" xmlns:xlink="http://www.w3.org/1999/xlink" version="1.1" baseProfile="full">
    <g transform="scale(1,-1) translate(0,-500)">
        <path d="M 80.415597 480.089292 C 79.125467 477.337919 77.974401 474.635286 76.960811 471.981301 L 72.289866 473.765193 C 73.347862 476.535451 74.547011 479.350979 75.888570 482.212033 L 80.415597 480.089292 Z M 73.674267 461.772532 C 72.918198 458.856274 72.343198 456.006693 71.946344 453.223357 L 66.996406 453.929129 C 67.419979 456.899863 68.031931 459.932566 68.834284 463.027346 L 73.674267 461.772532 Z M 71.296630 442.662960 C 71.367916 439.726325 71.659845 436.873921 72.168068 434.104179 L 67.250173 433.201789 C 66.694371 436.230831 66.375715 439.344382 66.298103 442.541623 L 71.296630 442.662960 Z M 75.123737 423.994091 C 76.201765 421.358473 77.503079 418.807892 79.023390 416.341147 L 74.766882 413.717764 C 73.104287 416.415368 71.678456 419.210003 70.495892 422.101196 L 75.123737 423.994091 Z M 85.330675 407.938379 C 87.215665 405.833761 89.283216 403.802375 91.528657 401.844342 L 88.242533 398.075869 C 85.844857 400.166651 83.630763 402.342018 81.606149 404.602527 L 85.330675 407.938379 Z M 100.059693 395.323030 C 102.425737 393.728635 104.925853 392.195197 107.555343 390.722954 L 105.112668 386.360232 C 102.365220 387.898520 99.747901 389.503844 97.265562 391.176606 L 100.059693 395.323030 Z M 117.205948 385.854006 C 119.833279 384.658558 122.556987 383.514667 125.372466 382.422499 L 123.564177 377.760944 C 120.661562 378.886914 117.850390 380.067538 115.135202 381.302961 L 117.205948 385.854006 Z M 135.579725 378.816180 C 138.354403 377.924742 141.197561 377.078570 144.104347 376.277809 L 142.776414 371.457374 C 139.802949 372.276504 136.892662 373.142654 134.050336 374.055826 L 135.579725 378.816180 Z M 154.657455 373.632006 C 157.522268 372.980962 160.432946 372.371444 163.383846 371.803589 L 162.439009 366.893672 C 159.434104 367.471919 156.469044 368.092825 153.549430 368.756323 L 154.657455 373.632006 Z M 174.144178 369.943843 C 177.070177 369.493493 180.020511 369.083090 182.987902 368.712738 L 182.368669 363.751231 C 179.354425 364.127431 176.356971 364.544389 173.383568 365.002035 L 174.144178 369.943843 Z M 193.860778 367.541066 C 194.949411 367.442026 196.038035 367.348406 197.126166 367.260206 C 199.053688 367.109366 200.983225 366.910716 202.906829 366.665279 L 202.273998 361.705488 C 200.430942 361.940648 198.582334 362.130966 196.729132 362.275999 C 195.617746 362.366074 194.512769 362.461101 193.407763 362.561631 L 193.860778 367.541066 Z M 213.977460 364.723153 C 216.963594 364.054947 219.926541 363.273716 222.861556 362.382080 L 221.408178 357.597972 C 218.592030 358.453497 215.749664 359.202934 212.885615 359.843821 L 213.977460 364.723153 Z M 233.467340 358.631511 C 236.299340 357.485547 239.093995 356.235996 241.845890 354.886499 L 239.644409 350.397236 C 236.999045 351.694491 234.313099 352.895436 231.591829 353.996594 L 233.467340 358.631511 Z M 251.685693 349.526374 C 254.305401 347.951158 256.872124 346.284334 259.379938 344.530767 L 256.514712 340.433148 C 254.100728 342.121106 251.630273 343.725413 249.109137 345.241359 L 251.685693 349.526374 Z M 268.318687 337.705827 C 270.672657 335.747457 272.956209 333.711732 275.163179 331.604885 L 271.710635 327.988266 C 269.585945 330.016564 267.387366 331.976538 265.120918 333.862095 L 268.318687 337.705827 Z M 282.907967 323.564386 C 284.945218 321.262352 286.892208 318.899339 288.742882 316.483002 L 284.773384 313.442759 C 282.994667 315.765144 281.122800 318.036982 279.163660 320.250754 L 282.907967 323.564386 Z M 295.177375 307.253613 C 296.827937 304.640156 298.365140 301.985144 299.783482 299.297562 L 295.361487 296.963904 C 294.003898 299.536367 292.531620 302.079242 290.949899 304.583697 L 295.177375 307.253613 Z M 304.545264 289.057025 C 305.709489 286.171987 306.733672 283.268993 307.613326 280.358041 L 302.827087 278.911697 C 301.991197 281.677823 301.016993 284.439154 299.908560 287.185934 L 304.545264 289.057025 Z M 310.246679 269.305088 C 310.783169 266.222380 311.150844 263.150534 311.346662 260.099982 L 306.356932 259.779685 C 306.172768 262.648667 305.826540 265.541329 305.320719 268.447814 L 310.246679 269.305088 Z M 311.232441 248.756303 C 310.924091 245.476344 310.362425 242.380985 309.549736 239.465373 L 304.733340 240.807881 C 305.464747 243.431884 305.973347 246.234799 306.254390 249.224291 L 311.232441 248.756303 Z M 304.947352 228.722294 C 303.285150 225.980288 301.313935 223.465005 299.040128 221.168864 L 295.487358 224.687077 C 297.486912 226.706271 299.214919 228.911219 300.671625 231.314236 L 304.947352 228.722294 Z M 289.859489 214.016464 C 287.287843 212.461698 284.495417 211.063512 281.481254 209.812414 L 279.564449 214.430407 C 282.353431 215.588038 284.922136 216.874206 287.272613 218.295258 L 289.859489 214.016464 Z M 270.809613 206.227206 C 267.972969 205.464508 264.986511 204.790579 261.843737 204.199653 L 260.919793 209.113544 C 263.940300 209.681481 266.802284 210.327320 269.511354 211.055717 L 270.809613 206.227206 Z M 250.755839 202.526706 C 247.857141 202.184388 244.842033 201.894024 241.697728 201.651772 L 241.313643 206.636998 C 244.392275 206.874190 247.340166 207.158082 250.169447 207.492201 L 250.755839 202.526706 Z M 230.589924 201.011885 C 227.691560 200.895065 224.684330 200.808588 221.538970 200.749682 L 221.445347 205.748805 C 224.555948 205.807060 227.527440 205.892510 230.388561 206.007829 L 230.589924 201.011885 Z M 210.547654 200.651391 C 207.710608 200.650027 204.742182 200.664321 201.524003 200.693207 L 201.568881 205.693006 C 204.772117 205.664254 207.725013 205.650035 210.545251 205.651390 L 210.547654 200.651391 Z M 190.532307 200.883566 C 187.604876 200.918758 184.621788 200.914304 181.595506 200.869594 L 181.521645 205.869048 C 184.592385 205.914415 187.620128 205.918936 190.592410 205.883205 L 190.532307 200.883566 Z M 170.682901 200.540409 C 167.723401 200.406411 164.743731 200.235653 161.752187 200.028005 L 161.405962 205.016003 C 164.437548 205.226431 167.457244 205.399483 170.456748 205.535291 L 170.682901 200.540409 Z M 150.859783 199.112425 C 147.893483 198.819500 144.929683 198.491012 141.974339 198.127006 L 141.363114 203.089506 C 144.358538 203.458448 147.362291 203.791365 150.368419 204.088222 L 150.859783 199.112425 Z M 131.157632 196.628706 C 128.198227 196.172502 125.258511 195.680575 122.343078 195.153026 L 121.452785 200.073126 C 124.411262 200.608463 127.393815 201.107559 130.395861 201.570335 L 131.157632 196.628706 Z M 111.631588 193.029247 C 108.697888 192.395139 105.799083 191.724041 102.938945 191.016074 L 101.737558 195.869595 C 104.646306 196.589595 107.593454 197.271884 110.575250 197.916389 L 111.631588 193.029247 Z M 92.395274 188.186594 C 89.506958 187.348594 86.669025 186.471095 83.884784 185.554216 L 82.320853 190.303334 C 85.162283 191.239045 88.057112 192.134137 91.002056 192.988567 L 92.395274 188.186594 Z M 73.631915 181.904579 C 70.822306 180.824994 68.080596 179.702053 65.409870 178.535878 L 63.409042 183.118092 C 66.149111 184.314546 68.959956 185.465804 71.838516 186.571883 L 73.631915 181.904579 Z M 55.614321 173.899171 C 52.938644 172.526365 50.352087 171.104813 47.857675 169.634645 L 45.318898 173.942151 C 47.898508 175.462534 50.570517 176.931050 53.331865 178.347810 L 55.614321 173.899171 Z M 38.763968 163.768478 C 36.318603 162.039211 33.988308 160.254325 31.776106 158.413942 L 28.578383 162.257712 C 30.892458 164.182846 33.326447 166.047156 35.877068 167.850856 L 38.763968 163.768478 Z M 23.903944 151.111496 C 21.848259 148.974676 19.935829 146.774919 18.169566 144.512162 L 14.228163 147.588742 C 16.101631 149.988839 18.127015 152.318520 20.300664 154.577960 L 23.903944 151.111496 Z M 12.218310 135.698859 C 10.933831 133.469516 9.776769 131.187265 8.748998 128.851726 L 6.460759 129.858682 L 8.841659 129.096242 C 8.739551 128.777386 8.639745 128.455821 8.539502 128.123257 L 3.752250 129.566246 C 3.860565 129.925590 3.968827 130.274399 4.079859 130.621123 C 4.106459 130.704189 4.137389 130.785806 4.172520 130.865639 C 5.273312 133.367114 6.511957 135.810284 7.885969 138.195021 L 12.218310 135.698859 Z M 6.367067 117.781146 C 6.028892 114.889037 5.924683 112.026157 6.053204 109.194975 L 1.058348 108.968235 C 0.917528 112.070356 1.031564 115.203223 1.400902 118.361840 L 6.367067 117.781146 Z M 7.595435 98.841266 C 8.297050 96.094585 9.229561 93.382080 10.391832 90.706575 L 5.805860 88.714375 C 4.538235 91.632401 3.519013 94.597131 2.750988 97.603795 L 7.595435 98.841266 Z M 15.476315 81.376385 C 17.029780 79.020928 18.772244 76.700591 20.701965 74.418205 L 16.883774 71.189984 C 14.827882 73.621598 12.966444 76.100366 11.302343 78.623576 L 15.476315 81.376385 Z M 28.058918 66.736946 C 30.144500 64.796735 32.373740 62.890282 34.744726 61.019562 L 31.647636 57.094255 C 29.171713 59.047772 26.839516 61.042273 24.653271 63.076132 L 28.058918 66.736946 Z M 43.534068 54.677229 C 45.934197 53.087827 48.443545 51.529443 51.060427 50.003341 L 48.541580 45.684150 C 45.843665 47.257509 43.253700 48.865958 40.773428 50.508432 L 43.534068 54.677229 Z M 60.632958 44.807427 C 63.221074 43.498218 65.894276 42.217091 68.651169 40.964877 L 66.583411 36.412473 C 63.763465 37.693327 61.027201 39.004676 58.376019 40.345788 L 60.632958 44.807427 Z M 78.692908 36.680200 C 81.401718 35.594135 84.178796 34.533587 87.022987 33.499122 L 85.313961 28.800268 C 82.419323 29.853080 79.591688 30.932936 76.832202 32.039319 L 78.692908 36.680200 Z M 97.251317 29.985436 C 100.040266 29.080822 102.885383 28.199561 105.785702 27.342055 L 104.368069 22.547233 C 101.426200 23.417024 98.539410 24.311193 95.708655 25.229367 L 97.251317 29.985436 Z M 116.298915 24.401867 C 119.142908 23.650102 122.033959 22.919848 124.971253 22.211401 L 123.798917 17.350780 C 120.826588 18.067678 117.900390 18.806810 115.021131 19.567897 L 116.298915 24.401867 Z M 135.656917 19.774422 C 138.540186 19.153414 141.463514 18.552363 144.426205 17.971489 L 143.464207 13.064906 C 140.471354 13.651693 137.517770 14.258965 134.604142 14.886512 L 135.656917 19.774422 Z M 155.195680 15.979227 C 158.106773 15.471989 161.052408 14.983379 164.031991 14.513564 L 163.253222 9.574585 C 160.247216 10.048566 157.275077 10.541572 154.337396 11.053442 L 155.195680 15.979227 Z M 174.890208 12.905644 C 177.822773 12.498814 180.785475 12.109482 183.777797 11.737777 L 183.161437 6.775913 C 180.145616 7.150536 177.159347 7.542965 174.203145 7.953075 L 174.890208 12.905644 Z M 194.663417 10.477501 C 197.611715 10.160522 200.586549 9.860061 203.587468 9.576217 L 203.116641 4.598434 C 200.094562 4.884279 197.098510 5.186884 194.128936 5.506150 L 194.663417 10.477501 Z M 214.540774 8.623311 C 217.499068 8.387970 220.480879 8.168268 223.485810 7.964283 L 223.147172 2.975763 C 220.122999 3.181055 217.121897 3.402179 214.144262 3.639058 L 214.540774 8.623311 Z M 234.425189 7.296756 C 237.392224 7.135729 240.380272 6.989584 243.388982 6.858384 L 243.171156 1.863131 C 240.144776 1.995101 237.139016 2.142113 234.154227 2.304104 L 234.425189 7.296756 Z M 254.371977 6.448782 C 257.344157 6.356419 260.335203 6.278255 263.344804 6.214339 L 263.238641 1.215466 C 260.212696 1.279729 257.205270 1.358322 254.216673 1.451195 L 254.371977 6.448782 Z M 274.324878 6.045248 C 277.300288 6.016565 280.292725 6.001469 283.301908 5.999999 L 283.299466 1.000000 C 280.275063 1.001477 277.267375 1.016650 274.276681 1.045480 L 274.324878 6.045248 Z M 294.274639 6.054345 C 297.057143 6.083087 299.853131 6.123215 302.662399 6.174757 L 302.754119 1.175598 C 299.931516 1.123812 297.122170 1.083492 294.326283 1.054612 L 294.274639 6.054345 Z" transform="scale(1.000000,1.000000) translate(65.872809,11.678635)" fill="#ce44ff" opacity="1.000000"></path>
    </g>
</svg>