<?xml version="1.0" encoding="UTF-8" standalone="yes"?>
<!DOCTYPE svg PUBLIC "-//W3C//DTD SVG 1.1//EN" "http://www.w3.org/Graphics/SVG/1.1/DTD/svg11.dtd">

<svg width="300" height="500" viewBox="0 0 300 500" xmlns="http://www.w3.org/2000/svg" xmlns:xlink="http://www.w3.org/1999/xlink" version="1.1" baseProfile="full">
    <g transform="scale(1,-1) translate(0,-500)">
        <path d="M 3.202753 412.651108 C 3.935587 411.161133 4.731880 409.751585 5.590999 408.419575 L 3.528092 407.089044 C 2.617297 408.501175 1.774379 409.993256 1.000000 411.567698 L 3.202753 412.651108 Z M 11.828057 401.028299 C 13.019340 399.944656 14.281186 398.940824 15.614221 398.012678 L 14.211556 395.998123 C 12.792024 396.986494 11.446906 398.056573 10.176251 399.212416 L 11.828057 401.028299 Z M 24.189968 393.432227 C 25.665089 392.837711 27.202256 392.299140 28.805302 391.812313 L 28.091985 389.463468 C 26.421286 389.970839 24.816041 390.533264 23.272348 391.155416 L 24.189968 393.432227 Z M 38.425516 389.610640 C 39.994785 389.348954 41.621420 389.116816 43.322599 388.909392 L 43.025491 386.472668 C 41.289798 386.684301 39.627765 386.921490 38.021743 387.189304 L 38.425516 389.610640 Z M 53.212592 388.005053 C 54.694046 387.903418 56.210318 387.809103 58.190799 387.693028 L 58.047173 385.242463 C 56.059256 385.358974 54.535550 385.453752 53.044578 385.556039 L 53.212592 388.005053 Z M 68.212966 387.067562 C 70.035111 386.930763 71.682345 386.784814 73.231282 386.619752 L 72.971162 384.178803 C 71.449625 384.340945 69.827342 384.484684 68.029190 384.619681 L 68.212966 387.067562 Z M 83.269672 384.854295 C 84.891553 384.433312 86.518695 383.944653 88.148232 383.389663 L 87.356824 381.065966 C 85.784357 381.601519 84.215452 382.072688 82.652938 382.478261 L 83.269672 384.854295 Z M 97.536054 379.470850 C 99.034171 378.730342 100.527347 377.936889 102.013029 377.092084 L 100.799625 374.958179 C 99.354903 375.779693 97.903614 376.550888 96.448306 377.270237 L 97.536054 379.470850 Z M 110.528593 371.627016 C 111.887653 370.652665 113.233888 369.637019 114.565098 368.581810 L 113.040231 366.658097 C 111.739835 367.688880 110.425125 368.680742 109.098295 369.631986 L 110.528593 371.627016 Z M 122.215100 361.922594 C 123.428619 360.766531 124.622848 359.578487 125.795941 358.360241 L 124.027696 356.657535 C 122.879031 357.850413 121.709821 359.013568 120.521901 360.145243 L 122.215100 361.922594 Z M 132.520937 350.758162 C 133.581022 349.453757 134.616201 348.125097 135.624961 346.773936 L 133.657927 345.305373 C 132.669299 346.629571 131.654802 347.931684 130.615938 349.209977 L 132.520937 350.758162 Z M 141.296260 338.494291 C 142.190964 337.066443 143.055701 335.620995 143.889259 334.159615 L 141.756969 332.943376 C 140.940221 334.375285 140.092876 335.791663 139.216126 337.190856 L 141.296260 338.494291 Z M 148.529593 325.164355 C 149.239002 323.632474 149.913678 322.089012 150.552676 320.535515 L 148.282456 319.601707 C 147.657025 321.122220 146.996593 322.633097 146.302084 324.132803 L 148.529593 325.164355 Z M 153.986599 310.991584 C 154.486097 309.375414 154.946323 307.753231 155.366557 306.126440 L 152.989806 305.512476 C 152.579218 307.101928 152.129480 308.687143 151.641286 310.266736 L 153.986599 310.991584 Z M 157.425052 296.175866 C 157.685249 294.502305 157.902113 292.827978 158.075107 291.154128 L 155.633343 290.901769 C 155.464677 292.533741 155.253201 294.166470 154.999424 295.798742 L 157.425052 296.175866 Z M 158.581812 280.983050 C 158.574482 279.290267 158.520794 277.601565 158.420361 275.918011 L 155.969947 276.064191 C 156.067679 277.702465 156.119930 279.345968 156.127064 280.993678 L 158.581812 280.983050 Z M 157.256478 265.902973 C 157.185273 265.493814 157.111185 265.085143 157.034209 264.676973 C 156.798826 263.428844 156.548251 262.192655 156.282561 260.967923 L 153.883592 261.488349 C 154.144555 262.691289 154.390703 263.905641 154.621960 265.131894 C 154.696797 265.528724 154.768828 265.926045 154.838057 266.323846 L 157.256478 265.902973 Z M 153.772752 251.192706 C 153.289249 249.571074 152.776845 247.968902 152.235584 246.384447 L 149.912615 247.177990 C 150.443468 248.731977 150.946047 250.303428 151.420320 251.894104 L 153.772752 251.192706 Z M 148.588786 236.953432 C 147.919833 235.408602 147.220923 233.877864 146.491581 232.358326 L 144.278528 233.420537 C 144.994198 234.911591 145.679905 236.413411 146.336146 237.928886 L 148.588786 236.953432 Z M 141.788340 223.425271 C 140.960085 221.980030 140.101336 220.538297 139.209939 219.094586 L 137.121227 220.384230 C 137.998731 221.805438 138.843778 223.224168 139.658530 224.645847 L 141.788340 223.425271 Z M 133.677652 210.686789 C 132.742291 209.343611 131.772855 207.984472 130.759873 206.594216 L 128.775893 208.039802 C 129.778835 209.416279 130.738138 210.761211 131.663205 212.089607 L 133.677652 210.686789 Z M 124.722392 198.578008 C 123.791537 197.373633 122.819359 196.125678 121.645550 194.626449 L 119.712718 196.139743 C 120.883620 197.635259 121.852813 198.879381 122.780126 200.079174 L 124.722392 198.578008 Z M 115.490414 186.759808 C 114.391608 185.343309 113.397738 184.049315 112.454225 182.804775 L 110.498062 184.287785 C 111.447463 185.540092 112.446755 186.841146 113.550803 188.264402 L 115.490414 186.759808 Z M 106.581739 174.760555 C 105.611086 173.367347 104.686526 172.000731 103.801317 170.648620 L 101.747540 171.993200 C 102.646014 173.365573 103.583769 174.751693 104.567598 176.163813 L 106.581739 174.760555 Z M 98.666164 162.168481 C 97.858518 160.710840 97.091149 159.253678 96.362445 157.791614 L 94.165434 158.886621 C 94.910255 160.381021 95.694238 161.869731 96.518963 163.358196 L 98.666164 162.168481 Z M 92.369766 148.725692 C 92.045804 147.879673 91.733654 147.029483 91.433275 146.174581 C 91.190672 145.484117 90.953845 144.784878 90.722962 144.077306 L 88.389287 144.838790 C 88.625855 145.563784 88.868582 146.280444 89.117304 146.988324 C 89.425250 147.864760 89.745244 148.736314 90.077321 149.603526 L 92.369766 148.725692 Z M 88.092586 134.543369 C 87.727618 132.951486 87.391705 131.334954 87.085880 129.697462 L 84.672834 130.148133 C 84.984760 131.818294 85.327456 133.467465 85.699895 135.091936 L 88.092586 134.543369 Z M 85.645448 119.886241 C 85.468638 118.250757 85.321545 116.604850 85.204710 114.951278 L 82.756045 115.124291 C 82.875023 116.808201 83.024822 118.484391 83.204899 120.150086 L 85.645448 119.886241 Z M 84.870758 105.059248 C 84.875779 103.407453 84.911290 101.755235 84.977570 100.104704 L 82.524777 100.006207 C 82.457275 101.687149 82.421112 103.369716 82.415999 105.051787 L 84.870758 105.059248 Z M 85.750569 90.205474 C 85.942425 88.561819 86.165739 86.925556 86.420648 85.298330 L 83.995455 84.918417 C 83.735563 86.577452 83.507912 88.245490 83.312353 89.920873 L 85.750569 90.205474 Z M 88.351637 75.568453 C 88.740744 73.959246 89.162443 72.363976 89.616798 70.783953 L 87.257633 70.105546 C 86.793563 71.719351 86.362921 73.348451 85.965628 74.991516 L 88.351637 75.568453 Z M 92.756493 61.442632 C 93.353495 59.900955 93.984138 58.378817 94.648453 56.877270 L 92.403573 55.884089 C 91.723603 57.421021 91.078215 58.978748 90.467364 60.556184 L 92.756493 61.442632 Z M 99.087321 48.037570 C 99.900330 46.601471 100.747700 45.189593 101.629452 43.802786 L 99.557943 42.485689 C 98.653625 43.907986 97.784693 45.355792 96.951119 46.828216 L 99.087321 48.037570 Z M 107.374970 35.736640 C 108.398760 34.449970 109.456763 33.190856 110.549011 31.959972 L 108.712908 30.330671 C 107.591431 31.594493 106.505162 32.887247 105.454084 34.208212 L 107.374970 35.736640 Z M 117.509607 24.922696 C 118.723725 23.821195 119.970874 22.748974 121.251100 21.706565 L 119.701148 19.803004 C 118.386987 20.873044 117.106672 21.973779 115.860189 23.104643 L 117.509607 24.922696 Z M 129.218721 15.886689 C 130.588021 14.991336 131.988149 14.125338 133.419156 13.289109 L 132.180639 11.169682 C 130.714162 12.026638 129.279056 12.914270 127.875305 13.832150 L 129.218721 15.886689 Z M 142.188708 8.718807 C 143.672138 8.032704 145.183490 7.374718 146.722812 6.745167 L 145.793571 4.473073 C 144.220254 5.116528 142.675147 5.789210 141.158230 6.490801 L 142.188708 8.718807 Z M 156.025378 3.395913 C 156.109740 3.369439 156.109740 3.369439 156.194183 3.343029 L 155.461986 1.000000 C 155.375873 1.026933 155.375873 1.026933 155.289840 1.053930 L 156.025378 3.395913 Z" transform="scale(1.000000,1.000000) translate(68.706077,55.592461)" fill="#a9ff10" opacity="1.000000"></path>
        <path d="M 40.776504 21.888252 C 40.776504 32.319946 32.319946 40.776504 21.888252 40.776504 C 11.456559 40.776504 3.000000 32.319946 3.000000 21.888252 C 3.000000 11.456559 11.456559 3.000000 21.888252 3.000000 C 32.319946 3.000000 40.776504 11.456559 40.776504 21.888252 Z M 42.776504 21.888252 C 42.776504 10.351989 33.424515 1.000000 21.888252 1.000000 C 10.351989 1.000000 1.000000 10.351989 1.000000 21.888252 C 1.000000 33.424515 10.351989 42.776504 21.888252 42.776504 C 33.424515 42.776504 42.776504 33.424515 42.776504 21.888252 Z" transform="scale(1.000000,1.000000) translate(222.675855,30.435178)" fill="#a9ff10" opacity="1.000000"></path>
    </g>
</svg>