<?xml version="1.0" encoding="UTF-8" standalone="yes"?>
<!DOCTYPE svg PUBLIC "-//W3C//DTD SVG 1.1//EN" "http://www.w3.org/Graphics/SVG/1.1/DTD/svg11.dtd">

<svg width="700" height="500" viewBox="0 0 700 500" xmlns="http://www.w3.org/2000/svg" xmlns:xlink="http://www.w3.org/1999/xlink" version="1.1" baseProfile="full">
    <defs>
        <linearGradient id="105553140910912140221661792336" x1="53.894333%" x2="53.894333%" y1="111.302429%" y2="-8.587887%">
            <stop offset="0%" style="stop-color:#c3ff26;stop-opacity:1.000000"></stop>
            <stop offset="100%" style="stop-color:#5db6ff;stop-opacity:1.000000"></stop>
        </linearGradient>
        <linearGradient id="105553140910912140221543499408" x1="0.715012%" x2="0.715012%" y1="317.707764%" y2="0.000000%">
            <stop offset="0%" style="stop-color:#c3ff26;stop-opacity:1.000000"></stop>
            <stop offset="100%" style="stop-color:#5db6ff;stop-opacity:1.000000"></stop>
        </linearGradient>
        <linearGradient id="105553140910912140221662190832" x1="102.150238%" x2="102.150238%" y1="100.000000%" y2="-18.304283%">
            <stop offset="0%" style="stop-color:#c3ff26;stop-opacity:1.000000"></stop>
            <stop offset="100%" style="stop-color:#5db6ff;stop-opacity:1.000000"></stop>
        </linearGradient>
    </defs>
    <g transform="scale(1,-1) translate(0,-500)">
        <path d="M 122.360640 6.035503 L 375.946551 641.115540 C 377.584973 645.218801 375.586826 649.873355 371.483564 651.511777 L 265.554667 693.808929 C 261.451405 695.447351 256.796851 693.449204 255.158429 689.345943 L 1.572518 54.265907 C -0.065904 50.162645 1.932243 45.508091 6.035504 43.869669 L 111.964402 1.572518 C 116.067663 -0.065904 120.722218 1.932242 122.360640 6.035503 Z" transform="scale(1.000000,1.000000) translate(-104.855430,-108.709990)" fill="url(#105553140910912140221661792336)" opacity="1.000000"></path>
        <path d="M 258.795731 1.000000 L 321.673983 158.472168 C 321.673983 158.472168 321.673983 158.472168 321.673983 158.472168 L 63.878252 261.409375 C 63.878252 261.409375 63.878252 261.409375 63.878252 261.409375 L 1.000000 103.937208 C 1.000000 103.937208 1.000000 103.937208 1.000000 103.937208 L 258.795731 1.000000 C 258.795731 1.000000 258.795731 1.000000 258.795731 1.000000 Z" transform="scale(1.000000,1.000000) translate(96.298795,-168.428561)" fill="url(#105553140910912140221543499408)" opacity="1.000000"></path>
        <path d="M 120.440061 6.757573 L 312.299778 663.128136 C 313.539387 667.368955 311.106424 671.811720 306.865604 673.051328 L 203.106310 703.380582 C 198.865490 704.620191 194.422725 702.187229 193.183117 697.946409 L 1.323399 41.575846 C 0.083791 37.335026 2.516754 32.892262 6.757573 31.652653 L 110.516868 1.323399 C 114.757688 0.083791 119.200452 2.516753 120.440061 6.757573 Z" transform="scale(1.000000,1.000000) translate(-221.760870,-39.437552)" fill="url(#105553140910912140221662190832)" opacity="1.000000"></path>
    </g>
</svg>